<?xml version="1.0" encoding="UTF-8" standalone="no"?>
<svg
   xmlns:dc="http://purl.org/dc/elements/1.1/"
   xmlns:cc="http://creativecommons.org/ns#"
   xmlns:rdf="http://www.w3.org/1999/02/22-rdf-syntax-ns#"
   xmlns:svg="http://www.w3.org/2000/svg"
   xmlns="http://www.w3.org/2000/svg"
   id="svg13496"
   version="1.1"
   viewBox="0 0 263.26039 108.06931"
   height="408.45096"
   width="995">
  <defs
     id="defs13490">
    <clipPath
       id="clipPath3713"
       clipPathUnits="userSpaceOnUse">
      <rect
         y="-307.30838"
         x="-1043.7812"
         height="107.15625"
         width="210.60834"
         id="rect3715"
         style="opacity:0.79299999;fill:#5e37f6;fill-opacity:1;stroke:none;stroke-width:0.26458332;stroke-linecap:round;stroke-linejoin:round;stroke-miterlimit:4;stroke-dasharray:none;stroke-dashoffset:0;stroke-opacity:1;paint-order:stroke markers fill" />
    </clipPath>
  </defs>
  <metadata
     id="metadata13493">
    <rdf:RDF>
      <cc:Work
         rdf:about="">
        <dc:format>image/svg+xml</dc:format>
        <dc:type
           rdf:resource="http://purl.org/dc/dcmitype/StillImage" />
        <dc:title></dc:title>
      </cc:Work>
    </rdf:RDF>
  </metadata>
  <g
     transform="translate(8.669064,-55.218388)"
     id="layer1">
    <g
       style="fill:#ff5555;fill-opacity:1;stroke-width:1.00319684"
       id="g3472"
       transform="matrix(1.3991024,0,0,1.3991467,1451.6878,460.82185)">
      <path
         style="fill:none;fill-opacity:1;stroke:#555555;stroke-width:0.26542914px;stroke-linecap:butt;stroke-linejoin:miter;stroke-opacity:1"
         d="m -1088.4312,-212.65401 v -15.34584 h 6.0854 v -16.13958 l 8.9886,-2.40847 v -24.31445 h 15.0885 v 34.39584 h 13.7583 v 19.05 h 2.9105 v -2.91042 h 4.4979 v -2.91042 h 6.0854 v -8.20208 h 3.4396 6.35 v -44.45 h 2.6458 v -6.61458 h 7.4083 v 7.14375 h 3.4396 v 53.18125 h 8.20211 v -45.24375 h 10.0542 v 49.74166 h 2.3812 v -22.48958 h 5.2917 v -5.02708 h 4.4979 v 3.96875 h 2.3813 v 5.02708 h 1.852 v -3.70417 h 3.175 v 2.38125 h 1.5875 v 6.35 h 5.0271 v -6.87916 h 3.4396 v 2.64583 h 3.7042 v -5.55625 h 3.7041 v -4.23333 h 3.7042 v 3.96875 h 3.175 v 20.90208 h 4.7625 v -10.31875 h 2.3813 v -12.43542 h 3.9687 v -2.91041 h 4.7625 v 2.64583 h 3.7042 v 3.43958 h 5.0271 v -20.90208 l 5.1593,-5.15937 h 11.2448 v 18.12395 h 4.4979 l 0.3662,1.3666 h 3.8672 v 3.13132 h 2.6458 l 1.1906,1.19063 2.1976,-1.06846 v -30.7643 0 l 7.3509,-10.85248 0.1088,-4.54289 h 3.9688 v 4.54289 l 6.3202,10.85248 v 51.01505 h 13.2589 v 8.73125 h 3.175"
         id="path5484"
         clip-path="url(#clipPath3713)" />
    </g>
  </g>
</svg>
