<?xml version="1.0" encoding="UTF-8" standalone="no"?>
<svg
   xmlns:dc="http://purl.org/dc/elements/1.1/"
   xmlns:cc="http://creativecommons.org/ns#"
   xmlns:rdf="http://www.w3.org/1999/02/22-rdf-syntax-ns#"
   xmlns:svg="http://www.w3.org/2000/svg"
   xmlns="http://www.w3.org/2000/svg"
   xml:space="preserve"
   viewBox="0 0 104.94127 102.37414"
   height="102.37414"
   width="104.94128"
   y="0px"
   x="0px"
   id="Capa_1"
   version="1.1"><metadata
   id="metadata41"><rdf:RDF><cc:Work
       rdf:about=""><dc:format>image/svg+xml</dc:format><dc:type
         rdf:resource="http://purl.org/dc/dcmitype/StillImage" /><dc:title></dc:title></cc:Work></rdf:RDF></metadata><defs
   id="defs39" />
<g
   transform="translate(-166.80242,-168.08717)"
   id="g4">
	<path
   style="fill:#f2f2f2;fill-opacity:1;stroke-width:0.23473287"
   id="path2"
   d="m 263.83915,194.69742 c -4.60264,-7.88608 -10.84584,-14.1295 -18.73121,-18.73168 -7.88656,-4.60241 -16.49632,-6.90303 -25.83541,-6.90303 -9.33791,0 -17.95049,2.30133 -25.83541,6.90303 -7.88608,4.60193 -14.12904,10.8456 -18.73168,18.73168 -4.60194,7.88585 -6.90302,16.49725 -6.90302,25.83399 0,11.21554 3.27219,21.30084 9.81818,30.25848 6.54528,8.95835 15.00083,15.15716 25.36593,18.59718 1.20653,0.22394 2.09969,0.0664 2.68042,-0.46853 0.58096,-0.53566 0.87109,-1.20653 0.87109,-2.00978 0,-0.13404 -0.0115,-1.33986 -0.0337,-3.61887 -0.0231,-2.27903 -0.0337,-4.26721 -0.0337,-5.96364 l -1.54149,0.26666 c -0.98282,0.18005 -2.22268,0.25633 -3.71958,0.23474 -1.49618,-0.0209 -3.04941,-0.17769 -4.65756,-0.46923 -1.60886,-0.28896 -3.10529,-0.95913 -4.49044,-2.00908 -1.38445,-1.04996 -2.36728,-2.42433 -2.94825,-4.12097 l -0.67016,-1.5422 c -0.44669,-1.02672 -1.14996,-2.16729 -2.11072,-3.41747 -0.96075,-1.25136 -1.93232,-2.09969 -2.91514,-2.54638 l -0.46924,-0.3359 c -0.31266,-0.22324 -0.60278,-0.49248 -0.87109,-0.80491 -0.26806,-0.31243 -0.46875,-0.62509 -0.60279,-0.93823 -0.13427,-0.31336 -0.023,-0.57039 0.33496,-0.77204 0.35797,-0.20162 1.0049,-0.29951 1.94358,-0.29951 l 1.33987,0.20023 c 0.89362,0.17909 1.99898,0.71406 3.31748,1.60816 1.31778,0.89339 2.40108,2.05484 3.2501,3.4839 1.02814,1.83232 2.26682,3.22851 3.71958,4.18928 1.45159,0.96076 2.91515,1.44031 4.38927,1.44031 1.47413,0 2.74731,-0.11173 3.82004,-0.33402 1.07155,-0.22346 2.07693,-0.55937 3.01562,-1.00582 0.4021,-2.99473 1.4969,-5.29534 3.28344,-6.9035 -2.54638,-0.2676 -4.83573,-0.67063 -6.86922,-1.20653 -2.03231,-0.53659 -4.13247,-1.40745 -6.29905,-2.61491 -2.16777,-1.20584 -3.96606,-2.70321 -5.39534,-4.48951 -1.42952,-1.78727 -2.60272,-4.13365 -3.51795,-7.03706 -0.91568,-2.90458 -1.37364,-6.25515 -1.37364,-10.05267 0,-5.40707 1.76517,-10.0083 5.29486,-13.80628 -1.65346,-4.06511 -1.49736,-8.62221 0.46876,-13.67084 1.29573,-0.40257 3.21724,-0.10046 5.76363,0.90442 2.54686,1.00537 4.41157,1.8666 5.59604,2.58065 1.18446,0.71383 2.13348,1.31874 2.84848,1.80933 4.15594,-1.16122 8.44474,-1.74196 12.86758,-1.74196 4.42284,0 8.71257,0.58074 12.86876,1.74196 l 2.54662,-1.60768 c 1.74147,-1.07275 3.79797,-2.0558 6.16455,-2.94943 2.36798,-0.89316 4.17871,-1.13916 5.43031,-0.73659 2.00978,5.04886 2.18889,9.60573 0.53495,13.67084 3.52945,3.79798 5.29534,8.40038 5.29534,13.80629 0,3.79751 -0.4596,7.15864 -1.37388,10.08553 -0.91546,2.92735 -2.09875,5.27139 -3.55035,7.03705 -1.45323,1.76543 -3.26301,3.25105 -5.4296,4.45665 -2.16704,1.20652 -4.26791,2.07737 -6.30023,2.61398 -2.03325,0.53659 -4.3226,0.93988 -6.86898,1.20793 2.32244,2.00979 3.4839,5.1822 3.4839,9.51584 v 14.1396 c 0,0.80325 0.27933,1.47388 0.83846,2.00978 0.55844,0.53496 1.44032,0.69247 2.64685,0.46829 10.36651,-3.43953 18.82205,-9.63859 25.36711,-18.59694 6.54436,-8.95764 9.81771,-19.04294 9.81771,-30.25848 -0.002,-9.33555 -2.3046,-17.94626 -6.90443,-25.83211 z" />
</g>
<g
   transform="translate(-166.80242,-168.08717)"
   id="g6">
</g>
<g
   transform="translate(-166.80242,-168.08717)"
   id="g8">
</g>
<g
   transform="translate(-166.80242,-168.08717)"
   id="g10">
</g>
<g
   transform="translate(-166.80242,-168.08717)"
   id="g12">
</g>
<g
   transform="translate(-166.80242,-168.08717)"
   id="g14">
</g>
<g
   transform="translate(-166.80242,-168.08717)"
   id="g16">
</g>
<g
   transform="translate(-166.80242,-168.08717)"
   id="g18">
</g>
<g
   transform="translate(-166.80242,-168.08717)"
   id="g20">
</g>
<g
   transform="translate(-166.80242,-168.08717)"
   id="g22">
</g>
<g
   transform="translate(-166.80242,-168.08717)"
   id="g24">
</g>
<g
   transform="translate(-166.80242,-168.08717)"
   id="g26">
</g>
<g
   transform="translate(-166.80242,-168.08717)"
   id="g28">
</g>
<g
   transform="translate(-166.80242,-168.08717)"
   id="g30">
</g>
<g
   transform="translate(-166.80242,-168.08717)"
   id="g32">
</g>
<g
   transform="translate(-166.80242,-168.08717)"
   id="g34">
</g>
</svg>