<?xml version="1.0" encoding="UTF-8" standalone="no"?>
<!-- Created with Inkscape (http://www.inkscape.org/) -->

<svg
   xmlns:dc="http://purl.org/dc/elements/1.1/"
   xmlns:cc="http://creativecommons.org/ns#"
   xmlns:rdf="http://www.w3.org/1999/02/22-rdf-syntax-ns#"
   xmlns:svg="http://www.w3.org/2000/svg"
   xmlns="http://www.w3.org/2000/svg"
   xmlns:sodipodi="http://sodipodi.sourceforge.net/DTD/sodipodi-0.dtd"
   xmlns:inkscape="http://www.inkscape.org/namespaces/inkscape"
   width="42"
   height="56"
   viewBox="0 0 11.1125 14.816667"
   version="1.1"
   id="svg14904"
   inkscape:version="0.92.3 (2405546, 2018-03-11)"
   sodipodi:docname="resume.svg">
  <defs
     id="defs14898">
    <clipPath
       clipPathUnits="userSpaceOnUse"
       id="clipPath4105">
      <g
         id="g4141"
         transform="matrix(0.02535605,0,0,0.02535605,-801.06399,-914.71639)"
         style="filter:url(#filter4063)">
        <g
           id="g4109">
          <path
             id="path4107"
             d="M 327.081,0 H 90.234 C 74.331,0 61.381,12.959 61.381,28.859 v 412.863 c 0,15.924 12.95,28.863 28.853,28.863 H 380.35 c 15.917,0 28.855,-12.939 28.855,-28.863 V 89.234 Z m 6.81,43.184 35.996,39.121 h -35.996 z m 51.081,398.539 c 0,2.542 -2.081,4.629 -4.635,4.629 H 90.234 c -2.55,0 -4.619,-2.087 -4.619,-4.629 V 28.859 c 0,-2.548 2.069,-4.613 4.619,-4.613 h 219.411 v 70.181 c 0,6.682 5.443,12.099 12.129,12.099 h 63.198 z M 128.364,128.89 H 334.15 c 5.013,0 9.079,4.066 9.079,9.079 0,5.013 -4.066,9.079 -9.079,9.079 H 128.364 c -5.012,0 -9.079,-4.066 -9.079,-9.079 0,-5.012 4.067,-9.079 9.079,-9.079 z m 214.865,70.09 c 0,5.012 -4.066,9.079 -9.079,9.079 H 128.364 c -5.012,0 -9.079,-4.066 -9.079,-9.079 0,-5.013 4.067,-9.079 9.079,-9.079 H 334.15 c 5.013,0 9.079,4.067 9.079,9.079 z m 0,59.013 c 0,5.013 -4.066,9.079 -9.079,9.079 H 128.364 c -5.012,0 -9.079,-4.066 -9.079,-9.079 0,-5.013 4.067,-9.079 9.079,-9.079 H 334.15 c 5.013,0 9.079,4.066 9.079,9.079 z m 0,60.018 c 0,5.013 -4.066,9.079 -9.079,9.079 H 128.364 c -5.012,0 -9.079,-4.066 -9.079,-9.079 0,-5.013 4.067,-9.079 9.079,-9.079 H 334.15 c 5.013,0 9.079,4.066 9.079,9.079 z"
             inkscape:connector-curvature="0" />
        </g>
        <g
           id="g4111" />
        <g
           id="g4113" />
        <g
           id="g4115" />
        <g
           id="g4117" />
        <g
           id="g4119" />
        <g
           id="g4121" />
        <g
           id="g4123" />
        <g
           id="g4125" />
        <g
           id="g4127" />
        <g
           id="g4129" />
        <g
           id="g4131" />
        <g
           id="g4133" />
        <g
           id="g4135" />
        <g
           id="g4137" />
        <g
           id="g4139" />
      </g>
    </clipPath>
    <clipPath
       clipPathUnits="userSpaceOnUse"
       id="clipPath15519">
      <path
         style="fill:none;stroke:#000000;stroke-width:0.26458332px;stroke-linecap:butt;stroke-linejoin:miter;stroke-opacity:1"
         d="m -196.92619,18.235154 7.98635,-0.09355 -0.0234,3.414369 h 2.74787 l 0.67797,0.181661 0.0236,13.429039 -11.69304,0.561266 -0.56126,-3.46114 0.28063,-12.347852 z"
         id="path15521"
         inkscape:connector-curvature="0"
         sodipodi:nodetypes="cccccccccc" />
    </clipPath>
  </defs>
  <sodipodi:namedview
     id="base"
     pagecolor="#ffffff"
     bordercolor="#666666"
     borderopacity="1.0"
     inkscape:pageopacity="0.0"
     inkscape:pageshadow="2"
     inkscape:zoom="5.6568542"
     inkscape:cx="5.8307304"
     inkscape:cy="27.060134"
     inkscape:document-units="mm"
     inkscape:current-layer="layer1"
     showgrid="false"
     fit-margin-top="0"
     fit-margin-left="0"
     fit-margin-right="0"
     fit-margin-bottom="0"
     inkscape:window-width="2560"
     inkscape:window-height="1017"
     inkscape:window-x="-8"
     inkscape:window-y="-8"
     inkscape:window-maximized="1"
     units="px" />
  <metadata
     id="metadata14901">
    <rdf:RDF>
      <cc:Work
         rdf:about="">
        <dc:format>image/svg+xml</dc:format>
        <dc:type
           rdf:resource="http://purl.org/dc/dcmitype/StillImage" />
        <dc:title></dc:title>
      </cc:Work>
    </rdf:RDF>
  </metadata>
  <g
     inkscape:label="Layer 1"
     inkscape:groupmode="layer"
     id="layer1"
     transform="translate(208.89986,-18.525897)">
    <g
       id="g15543"
       transform="translate(-11.786586,-0.23386084)">
      <g
         clip-path="url(#clipPath15519)"
         id="g15513">
        <rect
           style="opacity:1;fill:none;fill-opacity:1;stroke:#f2f2f2;stroke-width:0.79374999;stroke-linecap:round;stroke-linejoin:round;stroke-miterlimit:4;stroke-dasharray:none;stroke-dashoffset:0;stroke-opacity:1;paint-order:stroke markers fill"
           id="rect15505"
           width="9.8756866"
           height="13.632823"
           x="-196.50949"
           y="19.412622" />
        <rect
           style="opacity:1;fill:none;fill-opacity:1;stroke:#f2f2f2;stroke-width:0.79374999;stroke-linecap:round;stroke-linejoin:round;stroke-miterlimit:4;stroke-dasharray:none;stroke-dashoffset:0;stroke-opacity:1;paint-order:stroke markers fill"
           id="rect15507"
           width="2.6247351"
           height="2.4205666"
           x="-189.25854"
           y="19.412622" />
      </g>
      <path
         inkscape:connector-curvature="0"
         id="path15523"
         d="m -189.22134,19.321567 2.73399,2.522475 v 0"
         style="fill:none;stroke:#f2f2f2;stroke-width:0.79374999;stroke-linecap:butt;stroke-linejoin:miter;stroke-miterlimit:4;stroke-dasharray:none;stroke-opacity:1" />
      <path
         inkscape:connector-curvature="0"
         id="path15527"
         d="m -194.47829,23.757043 h 5.81329"
         style="fill:none;stroke:#f2f2f2;stroke-width:0.5291667;stroke-linecap:round;stroke-linejoin:miter;stroke-miterlimit:4;stroke-dasharray:none;stroke-opacity:1" />
      <path
         style="fill:none;stroke:#f2f2f2;stroke-width:0.5291667;stroke-linecap:round;stroke-linejoin:miter;stroke-miterlimit:4;stroke-dasharray:none;stroke-opacity:1"
         d="m -194.47885,25.374801 h 4.08384"
         id="path15529"
         inkscape:connector-curvature="0" />
      <path
         inkscape:connector-curvature="0"
         id="path15531"
         d="m -194.47829,26.992558 h 5.81329"
         style="fill:none;stroke:#f2f2f2;stroke-width:0.5291667;stroke-linecap:round;stroke-linejoin:miter;stroke-miterlimit:4;stroke-dasharray:none;stroke-opacity:1" />
      <path
         style="fill:none;stroke:#f2f2f2;stroke-width:0.5291667;stroke-linecap:round;stroke-linejoin:miter;stroke-miterlimit:4;stroke-dasharray:none;stroke-opacity:1"
         d="m -194.47885,28.610316 h 4.08384"
         id="path15533"
         inkscape:connector-curvature="0" />
    </g>
  </g>
</svg>
