<svg xmlns="http://www.w3.org/2000/svg" viewBox="0 0 29.754 29.754" height="112.457" width="112.457"><defs><filter id="a" color-interpolation-filters="sRGB"><feColorMatrix values="2.354 0 0 0.952033 -0.677 0 2.354 0 0.952033 -0.677 0 0 2.354 0.952033 -0.677 0 0 0 1 0"/></filter><filter id="b" color-interpolation-filters="sRGB"><feColorMatrix values="2.354 0 0 0.952033 -0.677 0 2.354 0 0.952033 -0.677 0 0 2.354 0.952033 -0.677 0 0 0 1 0"/></filter></defs><g transform="translate(8.052 4.877) scale(.02666)" stroke-width="9.924" filter="url(#a)"><path d="M190.4 354.1L91.9 256l98.4-98.1-30-29.9L32 256l128.4 128zm131.2 0L420 256l-98.4-98.1 30-29.9L480 256 351.6 384z"/><path d="M155.6 276h40v-40h-40zm200.8-40h-40v40h40zM236 276h40v-40h-40z"/></g><path d="M137.791 78.27h-20.072a2.368 2.368 0 0 0-2.362 2.362v15.644a2.368 2.368 0 0 0 2.362 2.362h7.674l-2.361 2.656v1.772h9.446v-1.772l-2.362-2.656h7.675a2.368 2.368 0 0 0 2.361-2.362V80.632c0-1.3-1.062-2.362-2.361-2.362zm0 15.94h-20.072V80.632h20.072z" stroke-width=".265" filter="url(#b)" transform="translate(-112.878 -75.79)"/></svg>