<?xml version="1.0" encoding="UTF-8" standalone="no"?>
<svg
   xmlns:dc="http://purl.org/dc/elements/1.1/"
   xmlns:cc="http://creativecommons.org/ns#"
   xmlns:rdf="http://www.w3.org/1999/02/22-rdf-syntax-ns#"
   xmlns:svg="http://www.w3.org/2000/svg"
   xmlns="http://www.w3.org/2000/svg"
   id="svg3857"
   version="1.1"
   viewBox="0 0 29.754349 29.754234"
   height="29.754234mm"
   width="29.754349mm">
  <defs
     id="defs3851">
    <filter
       id="filter17394-8"
       style="color-interpolation-filters:sRGB">
      <feColorMatrix
         id="feColorMatrix17392-5"
         values="2.354 0 0 0.952033 -0.677 0 2.354 0 0.952033 -0.677 0 0 2.354 0.952033 -0.677 0 0 0 1 0" />
    </filter>
    <filter
       id="filter17398-8"
       style="color-interpolation-filters:sRGB">
      <feColorMatrix
         id="feColorMatrix17396-1"
         values="2.354 0 0 0.952033 -0.677 0 2.354 0 0.952033 -0.677 0 0 2.354 0.952033 -0.677 0 0 0 1 0" />
    </filter>
  </defs>
  <metadata
     id="metadata3854">
    <rdf:RDF>
      <cc:Work
         rdf:about="">
        <dc:format>image/svg+xml</dc:format>
        <dc:type
           rdf:resource="http://purl.org/dc/dcmitype/StillImage" />
        <dc:title></dc:title>
      </cc:Work>
    </rdf:RDF>
  </metadata>
  <g
     transform="translate(-112.87766,-75.790805)"
     id="layer1">
    <g
       id="g17271"
       transform="matrix(0.02666081,0,0,0.02666081,120.92973,80.667826)"
       style="stroke-width:9.92405319;filter:url(#filter17394-8)">
      <path
         id="path17257"
         d="M 190.4,354.1 91.9,256 190.3,157.9 160.3,128 32,256 160.4,384 Z m 131.2,0 L 420,256 321.6,157.9 351.6,128 480,256 351.6,384 Z"
         style="stroke-width:9.92405319" />
      <path
         id="path17259"
         d="m 155.6,276 h 40 v -40 h -40 z m 200.8,-40 h -40 v 40 h 40 z M 236,276 h 40 v -40 h -40 z"
         style="stroke-width:9.92405319" />
    </g>
    <path
       id="path17319"
       d="m 137.79098,78.270325 h -20.07229 c -1.2989,0 -2.3615,1.0624 -2.3615,2.3615 v 15.644599 c 0,1.2989 1.0626,2.3614 2.3615,2.3614 h 7.67469 l -2.3614,2.656596 v 1.7711 h 9.4457 v -1.7711 l -2.3614,-2.656596 h 7.6747 c 1.2989,0 2.3615,-1.0625 2.3615,-2.3614 V 80.631825 c 0,-1.2991 -1.0626,-2.3615 -2.3615,-2.3615 z m 0,15.939799 H 117.71869 V 80.631825 h 20.07229 z"
       style="stroke-width:0.26458332;filter:url(#filter17398-8)" />
  </g>
</svg>
