<?xml version="1.0" encoding="UTF-8" standalone="no"?>
<svg
   xmlns:dc="http://purl.org/dc/elements/1.1/"
   xmlns:cc="http://creativecommons.org/ns#"
   xmlns:rdf="http://www.w3.org/1999/02/22-rdf-syntax-ns#"
   xmlns:svg="http://www.w3.org/2000/svg"
   xmlns="http://www.w3.org/2000/svg"
   id="svg6224"
   version="1.1"
   viewBox="0 0 29.971992 25.983973"
   height="25.983973mm"
   width="29.971992mm">
  <defs
     id="defs6218">
    <filter
       id="filter17406-9"
       style="color-interpolation-filters:sRGB">
      <feColorMatrix
         id="feColorMatrix17404-6"
         values="2.354 0 0 0.952033 -0.677 0 2.354 0 0.952033 -0.677 0 0 2.354 0.952033 -0.677 0 0 0 1 0" />
    </filter>
  </defs>
  <metadata
     id="metadata6221">
    <rdf:RDF>
      <cc:Work
         rdf:about="">
        <dc:format>image/svg+xml</dc:format>
        <dc:type
           rdf:resource="http://purl.org/dc/dcmitype/StillImage" />
        <dc:title></dc:title>
      </cc:Work>
    </rdf:RDF>
  </metadata>
  <g
     transform="translate(-97.650909,-117.69849)"
     id="layer1">
    <g
       style="stroke-width:5.08466148;filter:url(#filter17406-9)"
       transform="matrix(0.05203559,0,0,0.05203559,99.316882,117.36611)"
       id="g17298">
      <path
         style="stroke-width:5.08466148"
         d="M 430.9,393.4 311.3,274.4 253.2,216.5 239.8,203.2 C 255.7,162.6 246.9,115 213.2,81.5 177.8,46.2 124.7,39.2 82.2,58.6 l 76.1,75.8 -53.1,52.9 -77.9,-75.8 C 6.2,153.8 15,206.7 50.4,242 84,275.5 131.8,284.3 172.5,268.5 L 186.9,282.8 81.7,388 c -7.6,5.7 -7.6,19 1.9,26.6 l 43.8,43.7 c 7.6,7.6 19.1,7.6 26.7,0 l 96.1,-112.4 113.4,112.9 c 7.1,7.1 17.7,7.1 24.8,0 l 40.7,-40.6 c 8.9,-7.1 8.9,-19.5 1.8,-24.8 z"
         id="path17284" />
      <path
         style="stroke-width:5.08466148"
         d="m 494.4,216.6 -34.5,-34.1 c -2.2,-2.2 -5.8,-2.2 -8,0 l -3.7,3.7 -18.5,-15.8 c 0,0 1.2,-10 -4.9,-18.7 -6.2,-8.7 -16.1,-19.8 -23.2,-26.9 -7.1,-7 -34.1,-33.9 -69.7,-51.4 C 296.2,55.7 271,48 241,48 v 29.7 c 0,0 28.7,16.6 45.1,29.7 16.3,13.1 16.8,59.5 16.8,59.5 l -28.5,28.5 56.5,56.1 31,-36.3 c 12.9,-3.5 23.8,-3.8 30.2,-0.3 l 13.7,13.3 -9.6,9.5 c -2.2,2.2 -2.2,5.7 0,7.9 l 34.5,34.1 c 2.2,2.2 5.8,2.2 8,0 l 55.7,-55.2 c 2.1,-2.2 2.1,-5.8 0,-7.9 z"
         id="path17286" />
    </g>
  </g>
</svg>
