<svg xmlns="http://www.w3.org/2000/svg" width="995" height="408.451" viewBox="0 0 263.26 108.069"><defs><clipPath clipPathUnits="userSpaceOnUse" id="a"><path opacity=".793" fill="#5e37f6" stroke-width=".265" stroke-linecap="round" stroke-linejoin="round" paint-order="stroke markers fill" d="M-1043.781-307.308h210.608v107.156h-210.608z"/></clipPath></defs><g fill="#f55" stroke-width="1.003"><path clip-path="url(#a)" d="M-1088.431-212.654V-228h6.085v-16.14l8.989-2.408v-24.314h15.088v34.395h13.759v19.05h2.91v-2.91h4.498v-2.91h6.085v-8.202h9.79v-44.45h2.646v-6.615h7.408v7.144h3.44v53.181h8.202v-45.244h10.054v49.742h2.381v-22.49h5.292v-5.027h4.498v3.969h2.381v5.027h1.852v-3.704h3.175v2.381h1.588v6.35h5.027v-6.879h3.44v2.646h3.704v-5.556h3.704v-4.234h3.704v3.969h3.175v20.902h4.762v-10.319h2.382v-12.435h3.968v-2.91h4.763v2.645h3.704v3.44h5.027v-20.902l5.16-5.16h11.244v18.124h4.498l.366 1.367h3.868v3.131h2.645l1.19 1.191 2.199-1.069v-30.764 0l7.35-10.852.11-4.543h3.968v4.543l6.32 10.852v51.015h13.26v8.731h3.174" fill="none" stroke="#555" stroke-width=".265" transform="matrix(1.3991 0 0 1.39915 1460.357 405.603)"/><path stroke-width=".266" stroke-linecap="round" stroke-linejoin="round" paint-order="markers stroke fill" d="M180.922 40.14h2.396v1.48h-2.396zm4.443 0h2.395v1.48h-2.395zm-4.443 2.961h2.396v1.48h-2.396zm4.443 0h2.395v1.48h-2.395zm-4.443 2.961h2.396v1.48h-2.396zm4.443 0h2.395v1.48h-2.395zm-4.443 2.962h2.396v1.48h-2.396zm4.443 0h2.395v1.48h-2.395zm-4.443 2.962h2.396v1.48h-2.396zm4.443 0h2.395v1.48h-2.395zm-4.443 2.961h2.396v1.48h-2.396zm4.443 0h2.395v1.48h-2.395zM71.33 36.093h1.923v1.48H71.33zm0 2.962h1.923v1.48H71.33zm0 2.962h1.923v1.48H71.33zm0 2.961h1.923v1.48H71.33zm0 2.962h1.923v1.48H71.33zm0 2.962h1.923v1.48H71.33zm-7.135-14.809h1.923v1.48h-1.923zm3.567 0h1.924v1.48h-1.924zm-3.567 2.962h1.923v1.48h-1.923zm3.567 0h1.924v1.48h-1.924zm-3.567 2.962h1.923v1.48h-1.923zm3.567 0h1.924v1.48h-1.924zm-3.567 2.961h1.923v1.48h-1.923zm3.567 0h1.924v1.48h-1.924zm-3.567 2.962h1.923v1.48h-1.923zm3.567 0h1.924v1.48h-1.924zm-3.567 2.962h1.923v1.48h-1.923zm3.567 0h1.924v1.48h-1.924zM219.618 24.31h5.696v1.48h-5.696zm10.561 0h5.696v1.48h-5.696zm-10.561 2.96h5.696v1.48h-5.696zm10.561 0h5.696v1.48h-5.696zm-10.561 2.962h5.696v1.48h-5.696zm10.561 0h5.696v1.48h-5.696zm-10.561 2.962h5.696v1.48h-5.696zm10.561 0h5.696v1.48h-5.696zm-10.561 2.962h5.696v1.48h-5.696zm10.561 0h5.696v1.48h-5.696zm-10.561 2.961h5.696v1.48h-5.696zm10.561 0h5.696v1.48h-5.696zm3.302 6.918h2.396v1.48h-2.396zm0 2.962h2.396v1.48h-2.396zm0 2.963h2.396v1.48h-2.396zm0 2.96h2.396v1.48h-2.396zm0 2.962h2.396v1.48h-2.396zm0 2.962h2.396v1.48h-2.396zm-10.245-14.809h2.395v1.48h-2.395zm0 2.962h2.395v1.48h-2.395zm0 2.963h2.395v1.48h-2.395zm0 2.96h2.395v1.48h-2.395zm0 2.962h2.395v1.48h-2.395zm0 2.962h2.395v1.48h-2.395zm-71.92 7.707h2.395v1.48h-2.395zm0 2.962h2.395v1.48h-2.395zm0 2.962h2.395v1.48h-2.395zm0 2.961h2.395v1.48h-2.395zm0 2.962h2.395v1.48h-2.395zm0 2.962h2.395v1.48h-2.395zM82.277 72.438h2.395v1.48h-2.395zm0 2.962h2.395v1.48h-2.395zm0 2.962h2.395v1.48h-2.395zm0 2.961h2.395v1.48h-2.395zm0 2.962h2.395v1.48h-2.395zm0 2.962h2.395v1.48h-2.395z"/><path stroke-width=".238" stroke-linecap="round" stroke-linejoin="round" paint-order="markers stroke fill" d="M132.455 70.904h1.924v1.48h-1.924zm0 2.96h1.924v1.48h-1.924zm0 2.962h1.924v1.48h-1.924zm-7.135-5.922h1.925v1.48h-1.924zm3.568 0h1.924v1.48h-1.924zm-3.568 2.96h1.925v1.48h-1.924zm3.568 0h1.924v1.48h-1.924zm-3.568 2.962h1.925v1.48h-1.924zm3.568 0h1.924v1.48h-1.924z"/><path d="M34.44 23.758h5.698v1.48H34.44zm0 2.962h5.698v1.48H34.44zm0 2.962h5.698v1.48H34.44zm0 2.961h5.698v1.48H34.44zm0 2.962h5.698v1.48H34.44zm0 2.962h5.698v1.48H34.44z" stroke-width=".41" stroke-linecap="round" stroke-linejoin="round" paint-order="markers stroke fill"/><path d="M44.998 35.565h2.396v1.48h-2.396zm0 2.962h2.396v1.48h-2.396zm0 2.962h2.396v1.48h-2.396zm0 2.961h2.396v1.48h-2.396zm0 2.961h2.396v1.48h-2.396zm0 2.962h2.396v1.48h-2.396zM34.44 56.295h2.395v1.48H34.44zm0 2.962h2.395v1.48H34.44zm0 2.963h2.395v1.48H34.44zm0 2.96h2.395v1.48H34.44zm0 2.962h2.395v1.48H34.44zm0 2.962h2.395v1.48H34.44z" stroke-width=".266" stroke-linecap="round" stroke-linejoin="round" paint-order="markers stroke fill"/></g></svg>