<svg xmlns="http://www.w3.org/2000/svg" width="25.028" height="19.221" viewBox="0 0 6.622 5.086"><defs><clipPath clipPathUnits="userSpaceOnUse" id="a"><rect width="15.335" height="15.026" x="-578.502" y="142.912" rx=".354" ry=".354" opacity=".618" fill="none" stroke="#000" stroke-width="3" stroke-linecap="round" stroke-linejoin="round" paint-order="stroke markers fill"/></clipPath></defs><g fill="#f2f2f2" stroke-linecap="round" stroke-linejoin="round" paint-order="stroke markers fill"><path clip-path="url(#a)" transform="translate(155.962 -35.718) scale(.26458)" d="M-564.496 153.201l-8.41-8.222-3.112 2.89a1.337 1.337 0 0 1-.947.395 1.37 1.37 0 0 1-.947-.395l-11.293-10.803s.008.711.008 1.168v14.196c0 .989.798 1.787 1.787 1.787h21.16c.99 0 1.785-.798 1.785-1.787z" stroke-width=".925"/><path d="M6.622.512L4.612 2.41l2.002 2.002V.857c0-.14.008-.345.008-.345z" stroke-width=".925"/><path d="M.08.163l2.976 2.859a.354.354 0 0 0 .501 0L6.577.128C6.492.053 6.262 0 6.14 0H.543C.402 0 .167.066.08.163zm.007.349l2.01 1.898L.095 4.412V.857C.095.717.087.512.087.512z" stroke-width=".245"/><path d="M-564.496 153.201l-8.41-8.222-3.112 2.89a1.337 1.337 0 0 1-.947.395 1.37 1.37 0 0 1-.947-.395l-11.293-10.803s.008.711.008 1.168v14.196c0 .989.798 1.787 1.787 1.787h21.16c.99 0 1.785-.798 1.785-1.787z" transform="matrix(-.26458 0 0 .26458 -149.348 -35.718)" clip-path="url(#a)" stroke-width=".925"/></g></svg>