<svg xmlns="http://www.w3.org/2000/svg" width="104.941" height="102.374"><path d="M97.037 26.61C92.434 18.724 86.19 12.48 78.306 7.88 70.419 3.276 61.809.976 52.47.976c-9.338 0-17.95 2.3-25.835 6.903-7.886 4.602-14.13 10.845-18.732 18.731C3.301 34.496 1 43.108 1 52.444c0 11.216 3.272 21.301 9.818 30.259C17.363 91.66 25.82 97.86 36.184 101.3c1.207.224 2.1.066 2.68-.469.581-.535.872-1.206.872-2.01 0-.133-.012-1.34-.034-3.618a595.32 595.32 0 0 1-.034-5.964l-1.541.267c-.983.18-2.223.256-3.72.234a28.34 28.34 0 0 1-4.657-.469c-1.61-.289-3.106-.959-4.49-2.009-1.385-1.05-2.368-2.424-2.95-4.12l-.67-1.543c-.446-1.027-1.15-2.167-2.11-3.417-.96-1.252-1.932-2.1-2.915-2.547l-.47-.336a4.92 4.92 0 0 1-.87-.805 3.677 3.677 0 0 1-.603-.938c-.135-.313-.023-.57.335-.772.358-.202 1.005-.3 1.943-.3l1.34.2c.894.18 2 .715 3.318 1.609 1.317.893 2.4 2.055 3.25 3.484 1.028 1.832 2.267 3.228 3.72 4.19 1.45.96 2.914 1.44 4.389 1.44 1.474 0 2.747-.112 3.82-.335a13.33 13.33 0 0 0 3.015-1.005c.402-2.995 1.497-5.296 3.284-6.904-2.547-.267-4.836-.67-6.87-1.206-2.032-.537-4.132-1.408-6.299-2.615-2.167-1.206-3.966-2.704-5.395-4.49-1.43-1.787-2.603-4.133-3.518-7.037-.916-2.904-1.374-6.255-1.374-10.053 0-5.407 1.766-10.008 5.295-13.806-1.653-4.065-1.497-8.622.47-13.67 1.295-.403 3.216-.101 5.763.904 2.547 1.005 4.411 1.866 5.596 2.58a59.216 59.216 0 0 1 2.848 1.81 47.588 47.588 0 0 1 12.868-1.742c4.423 0 8.712.58 12.869 1.742l2.546-1.608c1.742-1.073 3.798-2.056 6.165-2.95 2.368-.893 4.178-1.139 5.43-.736 2.01 5.049 2.189 9.606.535 13.67 3.53 3.799 5.295 8.401 5.295 13.807 0 3.798-.46 7.159-1.374 10.086-.915 2.927-2.098 5.271-3.55 7.037-1.453 1.765-3.263 3.25-5.43 4.456-2.166 1.207-4.267 2.078-6.3 2.614-2.033.537-4.322.94-6.869 1.208 2.323 2.01 3.484 5.182 3.484 9.516v14.14c0 .803.28 1.474.839 2.01.558.534 1.44.692 2.647.468 10.366-3.44 18.822-9.639 25.367-18.597 6.544-8.958 9.817-19.043 9.817-30.259-.002-9.335-2.304-17.946-6.904-25.832z" fill="#f2f2f2" stroke-width=".235"/></svg>