<svg xmlns="http://www.w3.org/2000/svg" width="60" height="40"><defs><clipPath clipPathUnits="userSpaceOnUse" id="a"><path d="M20.93 1012.14l18.993 2.411 2.714 13.868-8.743 14.924-15.828 2.412-9.497-9.798-2.261-14.622 9.045-8.593z" fill="none" stroke="#000" stroke-width=".142"/></clipPath><filter id="b" color-interpolation-filters="sRGB"><feColorMatrix values="0.401042 0 0 0.602028 0.299479 0 0.401042 0 0.602028 0.299479 0 0 0.401042 0.602028 0.299479 0 0 0 1 0"/></filter></defs><g transform="translate(-10.47 -1730.03) scale(1.7017)" clip-path="url(#a)" filter="url(#b)"><circle cx="25" cy="1027.4" r="23.151" fill="none" stroke="#555" stroke-width="2.08"/><path d="M39.426 1018.113c-.028 0-.056 0-.084.01l-31.377 6.136a.485.485 0 0 0-.21.854l6.198 5.01V1037a.485.485 0 0 0 .828.344l3.625-3.627 6.647 5.37c.219.176.54.131.701-.099l14.078-20.11a.485.485 0 0 0-.406-.763v-.002zm.01.486l-22.697 13.23-2.303 4.517.354-6.158 24.646-11.588z" style="text-indent:0;text-decoration-line:none;text-decoration-style:solid;text-decoration-color:#000;text-transform:none;white-space:normal;isolation:auto;mix-blend-mode:normal;solid-color:#000" color="#000" fill="#555"/></g></svg>