<svg xmlns="http://www.w3.org/2000/svg" viewBox="0 0 263.26 108.069" height="408.451" width="995"><defs><clipPath id="a" clipPathUnits="userSpaceOnUse"><path opacity=".793" fill="#5e37f6" stroke-width=".265" stroke-linecap="round" stroke-linejoin="round" paint-order="stroke markers fill" d="M-1043.781-307.308h210.608v107.156h-210.608z"/></clipPath></defs><path d="M-1088.431-212.654V-228h6.085v-16.14l8.989-2.408v-24.314h15.088v34.395h13.759v19.05h2.91v-2.91h4.498v-2.91h6.085v-8.202h9.79v-44.45h2.646v-6.615h7.408v7.144h3.44v53.181h8.202v-45.244h10.054v49.742h2.381v-22.49h5.292v-5.027h4.498v3.969h2.381v5.027h1.852v-3.704h3.175v2.381h1.588v6.35h5.027v-6.879h3.44v2.646h3.704v-5.556h3.704v-4.234h3.704v3.969h3.175v20.902h4.762v-10.319h2.382v-12.435h3.968v-2.91h4.763v2.645h3.704v3.44h5.027v-20.902l5.16-5.16h11.244v18.124h4.498l.366 1.367h3.868v3.131h2.645l1.19 1.191 2.199-1.069v-30.764 0l7.35-10.852.11-4.543h3.968v4.543l6.32 10.852v51.015h13.26v8.731h3.174" clip-path="url(#a)" fill="none" stroke="#555" stroke-width=".265" transform="matrix(1.3991 0 0 1.39915 1460.357 405.603)"/></svg>