<svg xmlns="http://www.w3.org/2000/svg" viewBox="0 0 263.26 108.069" height="408.451" width="995"><g fill="#7555ff" stroke-width="1.003" stroke-linecap="round" stroke-linejoin="round" paint-order="markers stroke fill"><path stroke-width=".266" d="M180.922 40.14h2.396v1.48h-2.396zm4.443 0h2.395v1.48h-2.395zm-4.443 2.961h2.396v1.48h-2.396zm4.443 0h2.395v1.48h-2.395zm-4.443 2.961h2.396v1.48h-2.396zm4.443 0h2.395v1.48h-2.395zm-4.443 2.962h2.396v1.48h-2.396zm4.443 0h2.395v1.48h-2.395zm-4.443 2.962h2.396v1.48h-2.396zm4.443 0h2.395v1.48h-2.395zm-4.443 2.961h2.396v1.48h-2.396zm4.443 0h2.395v1.48h-2.395zM71.33 36.093h1.923v1.48H71.33zm0 2.962h1.923v1.48H71.33zm0 2.962h1.923v1.48H71.33zm0 2.961h1.923v1.48H71.33zm0 2.962h1.923v1.48H71.33zm0 2.962h1.923v1.48H71.33zm-7.135-14.809h1.923v1.48h-1.923zm3.567 0h1.924v1.48h-1.924zm-3.567 2.962h1.923v1.48h-1.923zm3.567 0h1.924v1.48h-1.924zm-3.567 2.962h1.923v1.48h-1.923zm3.567 0h1.924v1.48h-1.924zm-3.567 2.961h1.923v1.48h-1.923zm3.567 0h1.924v1.48h-1.924zm-3.567 2.962h1.923v1.48h-1.923zm3.567 0h1.924v1.48h-1.924zm-3.567 2.962h1.923v1.48h-1.923zm3.567 0h1.924v1.48h-1.924zM219.618 24.31h5.696v1.48h-5.696zm10.561 0h5.696v1.48h-5.696zm-10.561 2.96h5.696v1.48h-5.696zm10.561 0h5.696v1.48h-5.696zm-10.561 2.962h5.696v1.48h-5.696zm10.561 0h5.696v1.48h-5.696zm-10.561 2.962h5.696v1.48h-5.696zm10.561 0h5.696v1.48h-5.696zm-10.561 2.962h5.696v1.48h-5.696zm10.561 0h5.696v1.48h-5.696zm-10.561 2.961h5.696v1.48h-5.696zm10.561 0h5.696v1.48h-5.696zm3.302 6.918h2.396v1.48h-2.396zm0 2.962h2.396v1.48h-2.396zm0 2.963h2.396v1.48h-2.396zm0 2.96h2.396v1.48h-2.396zm0 2.962h2.396v1.48h-2.396zm0 2.962h2.396v1.48h-2.396zm-10.245-14.809h2.395v1.48h-2.395zm0 2.962h2.395v1.48h-2.395zm0 2.963h2.395v1.48h-2.395zm0 2.96h2.395v1.48h-2.395zm0 2.962h2.395v1.48h-2.395zm0 2.962h2.395v1.48h-2.395zm-71.92 7.707h2.395v1.48h-2.395zm0 2.962h2.395v1.48h-2.395zm0 2.962h2.395v1.48h-2.395zm0 2.961h2.395v1.48h-2.395zm0 2.962h2.395v1.48h-2.395zm0 2.962h2.395v1.48h-2.395zM82.277 72.438h2.395v1.48h-2.395zm0 2.962h2.395v1.48h-2.395zm0 2.962h2.395v1.48h-2.395zm0 2.961h2.395v1.48h-2.395zm0 2.962h2.395v1.48h-2.395zm0 2.962h2.395v1.48h-2.395z"/><path stroke-width=".238" d="M132.455 70.904h1.924v1.48h-1.924zm0 2.96h1.924v1.48h-1.924zm0 2.962h1.924v1.48h-1.924zm-7.135-5.922h1.925v1.48h-1.924zm3.568 0h1.924v1.48h-1.924zm-3.568 2.96h1.925v1.48h-1.924zm3.568 0h1.924v1.48h-1.924zm-3.568 2.962h1.925v1.48h-1.924zm3.568 0h1.924v1.48h-1.924z"/><path d="M34.44 23.758h5.698v1.48H34.44zm0 2.962h5.698v1.48H34.44zm0 2.962h5.698v1.48H34.44zm0 2.961h5.698v1.48H34.44zm0 2.962h5.698v1.48H34.44zm0 2.962h5.698v1.48H34.44z" stroke-width=".41"/><path d="M44.998 35.565h2.396v1.48h-2.396zm0 2.962h2.396v1.48h-2.396zm0 2.962h2.396v1.48h-2.396zm0 2.961h2.396v1.48h-2.396zm0 2.961h2.396v1.48h-2.396zm0 2.962h2.396v1.48h-2.396zM34.44 56.295h2.395v1.48H34.44zm0 2.962h2.395v1.48H34.44zm0 2.963h2.395v1.48H34.44zm0 2.96h2.395v1.48H34.44zm0 2.962h2.395v1.48H34.44zm0 2.962h2.395v1.48H34.44z" stroke-width=".266"/></g></svg>